<?xml version="1.0" standalone="no"?>
<!DOCTYPE svg PUBLIC "-//W3C//DTD SVG 20010904//EN"
 "http://www.w3.org/TR/2001/REC-SVG-20010904/DTD/svg10.dtd">
<svg version="1.0" xmlns="http://www.w3.org/2000/svg"
 width="300.000000pt" height="300.000000pt" viewBox="0 0 300.000000 300.000000"
 preserveAspectRatio="xMidYMid meet">
<metadata>
Created by potrace 1.10, written by Peter Selinger 2001-2011
</metadata>
<g transform="translate(0.000000,300.000000) scale(0.100000,-0.100000)"
fill="#000000" stroke="none">
<path d="M1440 2254 c-121 -20 -157 -31 -237 -70 -163 -78 -289 -221 -348
-395 -26 -75 -29 -97 -28 -209 0 -108 3 -136 26 -205 36 -109 89 -195 168
-274 80 -80 167 -133 274 -168 103 -34 284 -38 380 -9 129 38 204 83 300 180
142 143 199 279 199 476 -1 190 -64 341 -200 477 -123 122 -261 184 -435 196
-41 3 -85 3 -99 1z m245 -69 c108 -33 194 -86 274 -170 170 -180 222 -432 136
-662 -139 -368 -583 -522 -924 -321 -78 47 -182 152 -224 228 -59 108 -81 198
-81 325 0 97 4 120 30 195 117 332 455 505 789 405z"/>
<path d="M1512 2005 c-29 -8 -65 -21 -81 -30 -30 -15 -151 -125 -138 -125 4 0
3 -9 -3 -20 -6 -11 -16 -20 -22 -20 -6 0 -3 9 7 20 10 11 14 20 8 20 -5 0 -23
-15 -40 -32 -17 -18 -47 -45 -66 -61 -121 -93 -161 -278 -92 -420 37 -75 117
-149 190 -176 110 -41 255 -20 344 50 49 39 35 42 -20 4 -182 -125 -413 -61
-506 140 -22 49 -27 74 -28 135 0 65 5 85 32 140 18 36 48 81 68 100 l36 35
-23 -50 c-18 -40 -23 -67 -23 -140 0 -78 4 -98 27 -145 34 -68 97 -134 163
-168 60 -30 181 -41 248 -23 23 7 46 12 50 11 8 -1 64 42 136 105 141 123 166
169 166 310 0 85 -4 107 -24 147 -76 155 -250 237 -409 193z m229 -33 c74 -36
125 -87 161 -160 61 -124 41 -270 -52 -375 -18 -21 -34 -36 -36 -34 -2 2 6 28
17 58 17 43 20 70 17 135 -7 138 -79 243 -206 302 -48 22 -71 27 -142 26 -51
0 -94 -5 -108 -13 -43 -23 -34 -3 12 29 72 49 111 60 206 57 65 -2 96 -8 131
-25z m-141 -73 c83 -21 175 -105 216 -199 28 -66 26 -188 -5 -258 -13 -29 -34
-61 -47 -71 -13 -10 -21 -20 -19 -23 3 -3 -4 -13 -15 -23 -11 -10 -20 -13 -20
-7 0 6 6 15 13 19 16 10 19 37 21 158 1 87 -2 106 -23 144 -35 66 -107 137
-170 168 -49 24 -68 28 -148 28 -54 0 -92 4 -90 9 7 22 60 50 114 62 58 12
105 10 173 -7z m-59 -105 c69 -31 141 -103 171 -171 29 -65 34 -156 14 -226
-15 -52 -19 -57 -52 -63 -135 -25 -283 35 -353 144 -31 51 -61 138 -61 183 0
35 18 120 29 137 24 39 162 36 252 -4z m-277 -31 c-44 -125 12 -295 125 -377
84 -61 200 -86 285 -63 29 8 29 8 14 -15 -8 -13 -39 -33 -69 -46 -73 -31 -180
-27 -259 10 -164 76 -240 273 -169 438 36 82 100 128 73 53z"/>
</g>
</svg>
